# xmcd
#
# Track frame offsets:
#	150
#	3844
#	13349
#	29356
#	51762
#	74248
#	90719
#	113734
#	126673
#	146791
#	159532
#	176082
#	190931
#	206489
#	225392
#	240226
#
# Disc length: 3461 seconds
#
# Revision: 1
# Processed by: cddbd v1.5.2PL0 Copyright (c) Steve Scherf et al.
# Submitted via: audiograbber 1.83.01
#
DISCID=e00d8310
DTITLE=Various Artist - Johnny Cash: Forever Words
DYEAR=2018
DGENRE=Country
TTITLE0=Kris Kristofferson and Willie Nelson - Forever - I Still Miss Someone
TTITLE1=Ruston Kelly and Kacey Musgraves - To June This Morning
TTITLE2=Brad Paisley - Gold All Over the Ground
TTITLE3=Chris Cornell - You Never Knew My Mind
TTITLE4=Alsion Krauss and Union Station - The Captain's Daughter
TTITLE5=T Bone Burnett - Jellico Coal Man
TTITLE6=Rosanne Cash - The Walking Wounded
TTITLE7=John Mellencamp - Them Double Blues
TTITLE8=Jewel - Body On Body
TTITLE9=Elvis Costello - I'll Still Love You
TTITLE10=Carlene Carter - June's Sundown
TTITLE11=Dailey and Vincent - He Bore It All
TTITLE12=Chinky Pin Hill - I'm With Her
TTITLE13=Robert Glasper (ft. Ro James and Anu Sun] - Goin', Goin', Gone
TTITLE14=The Jayhawks - What Would I Dreamer Do?
TTITLE15=Jamey Johnson - Spirit Rider
EXTD=
EXTT0=
EXTT1=
EXTT2=
EXTT3=
EXTT4=
EXTT5=
EXTT6=
EXTT7=
EXTT8=
EXTT9=
EXTT10=
EXTT11=
EXTT12=
EXTT13=
EXTT14=
EXTT15=
PLAYORDER=
